<svg fill="none" height="20" viewBox="0 0 18 20" width="18" xmlns="http://www.w3.org/2000/svg"><g fill="#fff"><path d="m2.45763 18.1422c.06094.6704.60948 1.158 1.27991 1.158h10.52366c.6705 0 1.219-.5079 1.2799-1.158l1.1784-12.35216h-15.4402z"/><path d="m16.7201 1.93002h-5.14v-.65011c0-.711061-.5688-1.27991-1.2799-1.27991h-2.58011c-.71106 0-1.27991.568849-1.27991 1.27991v.65011h-5.16027c-.711061 0-1.27991.56885-1.27991 1.27991s.568849 1.27991 1.27991 1.27991h15.44019c.7111 0 1.2799-.56885 1.2799-1.27991s-.5688-1.27991-1.2799-1.27991z"/></g></svg>