<svg fill="none" height="19" viewBox="0 0 22 19" width="22" xmlns="http://www.w3.org/2000/svg"><path d="m20.2991 9.78586c2.2679-2.24248 2.2679-5.88373 0-8.104-2.268-2.242479-5.9505-2.242479-8.2185 0l-1.1002 1.11014-1.10033-1.08794c-2.26792-2.264679-5.9505-2.264679-8.19597-.0222-1.100278 1.08793-1.6841 2.53111-1.6841 4.0631s.606277 2.97517 1.6841 4.0631l9.2963 9.19194zm-18.862-4.0409c0-1.15454.4491-2.22027 1.27992-3.01957.85328-.84371 1.95356-1.26556 3.05384-1.26556s2.20056.42185 3.05384 1.26556l2.1557 2.10926 2.1556-2.13147c1.6841-1.6652 4.446-1.6652 6.1077 0 .8084.7993 1.2799 1.86503 1.2799 3.01958 0 1.15454-.4491 2.22027-1.2799 3.01957l-8.2633 8.19277-8.26338-8.17057c-.80837-.8215-1.27992-1.88723-1.27992-3.01957z" fill="#000"/></svg>